<?xml version="1.0" standalone="no"?>
<!DOCTYPE svg PUBLIC "-//W3C//DTD SVG 20010904//EN"
 "http://www.w3.org/TR/2001/REC-SVG-20010904/DTD/svg10.dtd">
<svg version="1.0" xmlns="http://www.w3.org/2000/svg"
 width="358.000000pt" height="141.000000pt" viewBox="0 0 358.000000 141.000000"
 preserveAspectRatio="xMidYMid meet">

<g transform="translate(0.000000,141.000000) scale(0.100000,-0.100000)"
fill="#000000" stroke="none">
<path d="M514 1402 c-15 -10 -44 -55 -44 -67 1 -5 7 1 15 15 8 14 15 21 15 15
0 -5 5 -3 10 5 11 16 14 14 47 -37 7 -10 4 1 -6 25 -21 50 -24 53 -37 44z"/>
<path d="M476 1155 c10 -8 26 -14 34 -14 9 0 4 6 -10 14 -33 19 -49 19 -24 0z"/>
<path d="M266 1139 c-15 -9 -16 -13 -5 -20 8 -5 23 -9 33 -9 20 0 20 0 0 15
-16 13 -16 14 -1 9 9 -3 17 -1 17 5 0 14 -19 14 -44 0z"/>
<path d="M935 1103 c-29 -57 -29 -61 -2 -28 26 31 41 65 28 65 -4 0 -16 -17
-26 -37z"/>
<path d="M657 1086 c-6 -15 1 -26 15 -26 5 0 6 6 2 13 -5 9 -3 9 7 -1 12 -11
12 -14 0 -22 -10 -5 -20 -2 -31 13 -12 14 -19 17 -24 9 -4 -7 -4 -12 1 -12 4
0 -3 -6 -17 -13 -14 -7 -26 -23 -28 -37 -2 -14 -9 -31 -14 -37 -7 -9 -7 -13 1
-13 7 0 10 -4 6 -9 -3 -6 1 -13 9 -18 12 -7 13 -17 5 -52 -11 -48 -9 -121 3
-121 4 0 5 -7 1 -16 -5 -13 -2 -15 18 -9 l24 7 -23 -20 -23 -20 23 -16 c12 -9
18 -16 12 -16 -15 0 -16 -51 -2 -68 11 -13 10 -14 -8 -4 -20 11 -48 57 -56 92
-2 8 -6 17 -9 20 -4 3 -16 23 -29 45 l-22 40 4 -42 c4 -47 -6 -53 -58 -33 -32
13 -42 6 -24 -16 17 -20 21 -55 8 -71 -8 -10 -4 -13 16 -13 14 0 26 -5 26 -11
0 -5 4 -8 9 -5 4 3 16 -3 26 -14 10 -11 22 -17 27 -13 6 3 14 -1 20 -8 6 -10
8 -7 7 11 -2 41 0 42 36 20 23 -14 42 -19 56 -15 14 5 19 4 15 -4 -5 -7 -1 -9
8 -5 18 7 22 24 6 24 -5 0 -7 6 -4 14 3 8 -4 20 -15 28 -12 8 -18 18 -14 22 4
3 8 13 9 21 2 15 -8 19 -36 15 -10 -1 -7 7 10 26 14 15 19 24 13 20 -18 -10
-16 4 3 26 16 16 16 18 0 24 -18 7 -21 45 -5 61 8 8 6 16 -10 29 -28 24 -27
36 8 73 34 37 71 49 66 23 -2 -9 -4 -23 -4 -30 -1 -7 -5 -11 -9 -8 -4 2 -9 -6
-10 -20 -1 -13 3 -24 8 -24 5 0 7 7 4 15 -9 22 12 18 22 -5 7 -14 13 -17 24
-10 13 8 13 10 -1 10 -9 0 -19 7 -23 15 -3 8 -1 15 5 15 6 0 7 9 3 23 -4 12
-6 37 -6 55 2 46 -14 82 -37 82 -10 0 -21 -6 -24 -14z m47 -62 c3 -8 2 -12 -4
-9 -6 3 -10 10 -10 16 0 14 7 11 14 -7z m-24 2 c0 -3 -4 -8 -10 -11 -5 -3 -10
-1 -10 4 0 6 5 11 10 11 6 0 10 -2 10 -4z"/>
<path d="M80 1023 c0 -10 10 -29 21 -43 l20 -25 -15 32 c-20 40 -20 41 2 46
13 4 11 5 -5 6 -16 1 -23 -5 -23 -16z"/>
<path d="M133 1012 c3 -21 32 -64 39 -57 2 3 5 -2 5 -10 0 -8 -5 -15 -11 -15
-6 0 0 -7 12 -16 12 -8 22 -21 22 -28 0 -12 46 -12 80 1 8 3 33 7 55 10 22 2
45 5 51 7 6 2 17 0 25 -5 10 -6 6 -9 -16 -10 -42 -1 -57 -5 -96 -22 -51 -23
-62 -25 -81 -15 -13 6 -18 5 -18 -5 0 -21 56 -19 105 3 24 11 59 20 77 20 46
0 63 13 49 36 -6 11 -11 15 -11 10 0 -6 -6 -2 -12 7 -8 11 -38 20 -82 26 -50
7 -76 16 -95 34 -50 47 -103 62 -98 29z m32 -22 c3 -5 2 -10 -4 -10 -5 0 -13
5 -16 10 -3 6 -2 10 4 10 5 0 13 -4 16 -10z"/>
<path d="M675 979 c-10 -15 3 -25 16 -12 7 7 7 13 1 17 -6 3 -14 1 -17 -5z"/>
<path d="M123 918 c1 -21 7 -40 15 -43 8 -3 10 0 6 7 -4 6 -11 25 -15 42 -7
31 -7 31 -6 -6z"/>
<path d="M956 882 c-2 -4 -4 -65 -5 -137 -2 -71 -5 -133 -7 -137 -3 -4 10 -8
28 -7 18 0 27 3 21 6 -9 3 -13 33 -13 101 l0 97 103 -103 c56 -56 106 -102
110 -102 4 0 7 60 7 134 0 98 3 136 13 139 6 3 -2 6 -20 6 -22 1 -31 -3 -28
-11 2 -7 6 -56 9 -108 l5 -95 -109 112 c-61 61 -112 108 -114 105z"/>
<path d="M168 863 c7 -3 16 -2 19 1 4 3 -2 6 -13 5 -11 0 -14 -3 -6 -6z"/>
<path d="M741 853 c-19 -4 -21 -7 -10 -13 10 -7 11 -12 3 -20 -13 -13 -7 -50
7 -50 5 0 9 -11 9 -24 0 -14 5 -28 10 -31 6 -3 10 -15 10 -26 0 -10 -4 -19
-10 -19 -6 0 -9 -3 -8 -7 5 -22 -16 -95 -29 -100 -12 -5 -12 -7 -1 -14 7 -5
22 -8 33 -8 17 0 17 1 3 7 -14 6 -15 10 -3 25 14 19 55 16 55 -4 0 -6 5 -7 10
-4 6 3 10 11 10 16 0 6 -4 7 -10 4 -6 -4 -10 5 -10 19 0 14 5 26 10 26 6 0 10
11 10 25 0 14 5 25 11 25 6 0 8 -10 5 -22 l-6 -23 12 23 c10 20 8 26 -12 45
-12 12 -20 16 -16 10 4 -7 2 -13 -3 -13 -14 0 -14 6 -1 30 13 25 -2 36 -51 39
-18 1 -20 6 -16 35 2 19 8 39 11 45 4 6 6 10 4 10 -2 -1 -14 -4 -27 -6z m59
-135 c0 -14 -18 -9 -24 8 -11 28 -6 39 9 20 8 -11 15 -23 15 -28z m20 -52 c0
-14 -4 -28 -10 -31 -5 -3 -10 -15 -10 -27 0 -17 -3 -18 -15 -8 -11 9 -12 17
-4 31 5 11 14 17 20 13 6 -3 7 4 3 20 -4 16 -2 26 5 26 6 0 11 -11 11 -24z"/>
<path d="M766 811 c-4 -5 1 -17 10 -25 19 -20 20 -20 28 0 5 12 2 15 -9 10 -9
-3 -13 -2 -10 3 3 5 1 12 -4 15 -5 4 -12 2 -15 -3z"/>
<path d="M1285 723 c-21 -54 -42 -104 -48 -110 -7 -10 -3 -13 13 -13 13 0 21
3 17 6 -3 3 -1 19 5 35 9 25 15 29 49 29 36 0 39 -2 45 -35 6 -31 10 -35 38
-35 17 0 26 4 19 8 -6 4 -28 50 -49 102 -20 52 -40 98 -44 103 -3 4 -24 -37
-45 -90z m51 -11 c6 -30 5 -32 -21 -32 -21 0 -26 4 -21 16 3 9 9 27 12 41 8
30 21 19 30 -25z"/>
<path d="M1753 806 c-87 -39 -79 -180 12 -205 93 -25 174 55 145 144 -20 60
-95 88 -157 61z m96 -28 c24 -25 36 -76 26 -110 -16 -50 -53 -70 -100 -52 -41
16 -60 119 -29 162 21 30 76 30 103 0z"/>
<path d="M1400 795 c0 -12 5 -13 24 -3 50 22 58 7 54 -97 -3 -89 -2 -95 17
-95 19 0 20 6 17 101 l-3 102 41 -7 c27 -4 39 -3 35 4 -3 6 -45 10 -96 10 -72
0 -89 -3 -89 -15z"/>
<path d="M1620 705 c0 -102 1 -105 23 -105 21 0 22 3 22 105 0 102 -1 105 -22
105 -22 0 -23 -3 -23 -105z"/>
<path d="M1950 783 c-1 -39 -10 -144 -14 -165 -3 -13 2 -18 19 -18 21 0 22 3
14 38 -5 20 -9 55 -9 77 l0 40 80 -80 c44 -44 80 -75 80 -70 0 6 3 54 7 108 5
79 3 97 -8 97 -11 0 -14 -15 -11 -75 2 -41 0 -75 -4 -74 -5 1 -38 34 -74 74
-36 40 -68 73 -72 74 -5 1 -8 -11 -8 -26z"/>
<path d="M2180 803 c0 -17 65 -203 71 -203 3 0 16 28 29 63 12 34 25 66 29 70
4 4 20 -24 36 -63 15 -38 31 -70 34 -70 4 0 18 39 33 88 15 48 30 95 33 105 5
11 2 17 -7 17 -7 0 -14 -10 -16 -22 -1 -13 -10 -47 -20 -77 l-18 -54 -29 76
c-16 42 -32 74 -37 71 -4 -3 -17 -36 -29 -74 -13 -38 -26 -67 -30 -65 -4 3
-15 36 -24 75 -14 56 -21 70 -36 70 -10 0 -19 -3 -19 -7z"/>
<path d="M2506 768 c3 -24 1 -71 -4 -105 l-9 -63 26 0 26 0 0 105 c0 101 -1
105 -22 105 -20 0 -21 -4 -17 -42z"/>
<path d="M2615 705 l0 -105 66 0 c51 0 72 5 92 20 58 46 56 145 -3 175 -17 9
-56 15 -92 15 l-63 0 0 -105z m116 80 c82 -43 56 -175 -34 -175 -27 0 -36 5
-41 23 -8 30 -8 152 1 160 11 12 42 8 74 -8z"/>
<path d="M2835 705 l0 -106 60 3 c51 3 60 6 63 23 4 19 3 19 -10 2 -9 -12 -23
-18 -39 -15 -21 3 -24 9 -27 52 l-3 49 29 -6 c20 -4 32 -2 35 6 3 9 -5 12 -29
9 -34 -4 -34 -4 -34 37 0 37 2 41 25 41 13 0 29 -8 34 -17 9 -16 10 -16 11 5
0 20 -4 22 -57 22 l-58 0 0 -105z"/>
<path d="M144 740 c-12 -5 -25 -13 -28 -19 -4 -6 -13 -8 -21 -4 -10 3 -15 -1
-15 -11 0 -9 7 -19 15 -22 18 -7 12 -20 -18 -35 -22 -12 -22 -12 -3 9 18 20
18 22 1 28 -17 7 -37 -12 -32 -31 4 -15 90 -56 104 -50 7 2 13 -2 13 -9 0 -8
7 -16 15 -20 8 -3 15 -1 15 5 0 6 5 7 12 3 7 -4 8 -3 4 4 -4 7 -3 12 3 12 5 0
13 -5 16 -10 4 -6 10 -8 15 -5 5 3 13 -3 19 -12 6 -10 11 -13 11 -6 0 6 -5 15
-10 18 -8 5 -7 12 2 22 10 12 9 17 -5 28 -9 6 -15 14 -12 16 2 3 -4 5 -15 6
-18 2 -18 1 1 -18 21 -21 25 -39 9 -39 -5 0 -10 5 -10 12 0 6 -7 19 -15 29
-14 15 -14 18 2 35 17 17 17 17 -7 11 -24 -6 -24 -5 -6 8 19 14 18 15 -12 15
-18 0 -32 4 -32 9 0 5 10 6 23 3 21 -5 21 -5 5 11 -9 9 -18 17 -20 16 -2 0
-13 -4 -24 -9z m-14 -80 c0 -5 -5 -10 -11 -10 -5 0 -7 5 -4 10 3 6 8 10 11 10
2 0 4 -4 4 -10z m25 -20 c-3 -6 1 -13 10 -17 10 -3 21 0 26 8 5 8 9 9 9 3 0
-5 -7 -19 -16 -30 -8 -10 -13 -13 -9 -6 3 6 0 13 -7 13 -7 1 -17 2 -23 4 -5 1
-14 3 -20 4 -5 1 -1 8 9 16 23 18 30 19 21 5z"/>
<path d="M829 613 c-13 -15 -12 -15 9 -4 23 12 28 21 13 21 -5 0 -15 -7 -22
-17z"/>
<path d="M299 598 c-9 -30 -6 -36 14 -29 12 5 32 7 44 6 12 -1 20 2 17 7 -4 5
-12 7 -20 4 -7 -3 -16 -1 -19 4 -5 9 -34 14 -36 8z"/>
<path d="M205 561 c-3 -5 0 -13 6 -17 7 -4 9 -3 5 4 -3 5 0 13 6 15 9 4 10 6
1 6 -6 1 -14 -3 -18 -8z"/>
<path d="M1178 541 c-79 -16 -124 -78 -115 -157 10 -88 85 -141 188 -132 52 5
69 18 69 52 0 16 -3 15 -21 -8 -25 -32 -79 -35 -125 -7 -71 43 -85 160 -25
213 51 45 140 34 160 -21 9 -24 9 -22 10 17 1 38 -1 42 -23 42 -13 0 -36 2
-52 4 -16 3 -45 1 -66 -3z"/>
<path d="M292 531 c-8 -4 -24 -7 -38 -5 -34 3 -20 -13 15 -18 17 -2 27 0 24 5
-3 5 6 1 21 -8 26 -17 27 -24 9 -72 -5 -14 24 -30 34 -19 3 3 0 12 -7 20 -20
25 -8 38 18 20 17 -11 20 -19 13 -28 -13 -16 -4 -27 15 -19 8 3 21 0 29 -7 12
-10 15 -9 15 4 0 20 9 20 38 0 17 -11 22 -12 22 -2 0 20 48 19 53 -1 3 -11 5
-9 6 7 1 16 -5 22 -21 23 -13 1 -48 3 -79 5 -54 2 -60 5 -105 53 -34 35 -53
48 -62 42z m53 -101 c3 -5 1 -10 -4 -10 -6 0 -11 5 -11 10 0 6 2 10 4 10 3 0
8 -4 11 -10z"/>
<path d="M2665 451 c-1 -34 1 -37 12 -23 16 22 17 62 1 62 -8 0 -13 -15 -13
-39z"/>
<path d="M299 472 c9 -7 10 -11 2 -15 -7 -4 -8 -5 0 -4 15 3 13 21 -3 25 -10
3 -10 2 1 -6z"/>
<path d="M1348 463 c8 -3 12 -34 12 -103 0 -70 -4 -100 -12 -103 -7 -2 7 -4
32 -4 25 0 39 2 33 4 -8 3 -13 24 -13 54 l0 50 53 -3 52 -3 -3 -45 c-2 -24 -8
-47 -14 -51 -5 -4 9 -6 31 -5 23 0 37 2 31 4 -15 5 -13 199 3 205 6 3 -8 6
-33 6 -27 0 -40 -3 -32 -8 7 -4 14 -25 15 -47 l2 -38 -53 -1 -54 0 4 48 3 47
-35 -1 c-19 0 -29 -3 -22 -6z"/>
<path d="M1608 463 c8 -3 12 -34 12 -103 0 -70 -4 -100 -12 -103 -7 -2 7 -4
30 -4 24 0 39 3 32 7 -8 5 -10 39 -8 109 l3 101 -35 -1 c-19 0 -29 -3 -22 -6z"/>
<path d="M1718 463 c15 -6 17 -200 2 -205 -5 -1 20 -3 57 -3 60 0 68 2 70 20
2 11 0 14 -3 8 -3 -7 -21 -13 -40 -13 l-34 0 0 94 c0 66 4 96 13 99 6 3 -8 5
-33 5 -25 0 -39 -2 -32 -5z"/>
<path d="M1873 459 c14 -8 17 -24 17 -90 0 -44 -4 -89 -10 -99 -9 -17 -5 -18
58 -17 46 2 77 8 95 20 68 45 59 160 -14 186 -42 14 -171 15 -146 0z m112 -13
c41 -18 55 -42 55 -99 0 -62 -27 -84 -97 -79 -22 2 -23 6 -23 91 0 83 3 93 28
100 1 1 18 -5 37 -13z"/>
<path d="M2093 458 c15 -12 18 -26 15 -101 -2 -59 -8 -91 -17 -96 -8 -5 4 -8
31 -8 23 0 37 2 31 4 -8 3 -13 21 -13 44 0 51 16 50 61 -3 l37 -42 80 -3 c74
-3 80 -1 85 19 4 16 3 18 -6 9 -6 -6 -24 -11 -39 -11 -27 0 -28 2 -28 46 0 46
0 46 30 42 19 -3 31 0 35 10 4 11 -2 13 -30 10 -35 -4 -35 -4 -35 34 0 35 2
38 29 38 16 0 32 -6 34 -12 3 -7 6 -3 6 10 1 21 -3 22 -66 21 -38 0 -62 -3
-55 -6 14 -6 18 -203 3 -203 -13 0 -81 81 -81 96 0 6 7 17 15 24 8 7 15 22 15
34 0 40 -16 50 -87 54 -59 3 -66 2 -50 -10z m85 -14 c36 -25 27 -84 -14 -84
-22 0 -24 4 -24 50 0 54 4 58 38 34z"/>
<path d="M2440 368 c0 -76 -4 -108 -12 -111 -7 -2 5 -4 27 -4 22 0 32 2 23 4
-15 4 -18 16 -18 76 l1 72 72 -77 c40 -43 76 -78 80 -78 4 0 7 47 7 104 0 74
4 106 13 109 6 3 -4 6 -22 6 -27 1 -32 -2 -23 -11 7 -7 12 -41 12 -81 l0 -68
-80 83 -79 83 -1 -107z"/>
<path d="M2717 452 c-25 -27 -21 -60 9 -85 71 -59 74 -65 48 -91 -21 -22 -39
-20 -64 6 -20 22 -20 22 -20 1 0 -35 58 -45 98 -17 15 10 22 25 22 49 0 27 -8
39 -41 65 -28 23 -39 39 -37 54 4 28 47 35 65 10 12 -17 13 -16 13 4 0 19 -6
22 -38 22 -25 0 -45 -7 -55 -18z"/>
<path d="M370 381 c0 -5 8 -15 17 -22 14 -12 15 -12 9 0 -5 8 -3 17 5 22 10 6
8 9 -8 9 -13 0 -23 -4 -23 -9z"/>
<path d="M518 373 c7 -3 16 -2 19 1 4 3 -2 6 -13 5 -11 0 -14 -3 -6 -6z"/>
<path d="M444 355 c-10 -8 -14 -15 -8 -15 6 0 17 7 24 15 16 19 9 19 -16 0z"/>
<path d="M183 168 c0 -7 -3 -24 -7 -38 -5 -17 -4 -20 2 -10 16 25 24 60 14 60
-5 0 -9 -6 -9 -12z"/>
<path d="M883 168 c0 -7 -3 -24 -7 -38 -5 -17 -4 -20 2 -10 16 25 24 60 14 60
-5 0 -9 -6 -9 -12z"/>
<path d="M1023 174 c3 -3 -3 -31 -14 -61 -22 -66 -22 -63 -7 -63 6 0 9 3 5 6
-3 3 3 31 14 61 22 66 22 63 7 63 -6 0 -9 -3 -5 -6z"/>
<path d="M1114 172 c2 -4 -4 -27 -15 -51 -22 -49 -24 -71 -7 -71 6 0 9 3 5 6
-3 3 3 31 14 61 22 66 22 63 8 63 -5 0 -8 -4 -5 -8z"/>
<path d="M1458 127 c-24 -71 -23 -74 13 -75 34 -1 46 18 29 45 -10 15 -10 14
-5 -9 5 -25 3 -28 -20 -26 -14 1 -25 3 -25 4 0 0 9 26 19 57 11 32 17 57 13
57 -4 0 -15 -24 -24 -53z"/>
<path d="M1724 115 c-12 -36 -18 -62 -15 -58 4 4 17 21 31 38 14 16 17 23 8
16 -22 -16 -22 -13 -3 33 8 20 12 36 7 36 -4 0 -17 -29 -28 -65z"/>
<path d="M2222 174 c3 -3 -3 -27 -13 -55 -22 -57 -23 -69 -7 -69 6 0 9 3 5 6
-3 3 3 31 14 61 22 66 22 63 7 63 -6 0 -9 -2 -6 -6z"/>
<path d="M2743 174 c3 -3 -3 -31 -14 -61 -10 -31 -19 -59 -19 -62 1 -14 21 27
31 62 5 21 13 45 16 53 3 8 -1 14 -8 14 -7 0 -10 -3 -6 -6z"/>
<path d="M22 113 c5 -32 10 -58 11 -60 2 -1 8 7 15 17 10 16 10 20 0 18 -9 -2
-14 12 -16 40 -2 23 -7 42 -11 42 -4 0 -4 -26 1 -57z"/>
<path d="M67 125 c6 -53 16 -74 27 -56 4 6 2 11 -4 11 -6 0 -10 10 -9 23 1 12
-3 33 -9 47 -9 21 -10 17 -5 -25z"/>
<path d="M96 154 c-5 -14 -4 -15 9 -4 17 14 19 20 6 20 -5 0 -12 -7 -15 -16z"/>
<path d="M135 144 c-9 -15 -12 -23 -6 -20 11 7 35 46 28 46 -3 0 -12 -12 -22
-26z"/>
<path d="M1943 125 c-6 -7 -10 -15 -7 -18 3 -2 -4 -27 -15 -56 -12 -28 -17
-51 -12 -51 7 0 54 131 48 136 -1 1 -7 -4 -14 -11z"/>
<path d="M2073 125 c-6 -7 -10 -15 -7 -18 2 -2 0 -16 -5 -31 -6 -14 -7 -26 -3
-26 7 0 35 80 30 85 -2 2 -8 -3 -15 -10z"/>
<path d="M2683 128 c-4 -7 -8 -18 -9 -24 -1 -6 -5 -22 -9 -34 -5 -16 -4 -21 6
-18 8 3 12 13 11 24 -2 10 4 24 14 31 10 8 13 13 5 13 -7 0 -9 5 -6 10 3 6 4
10 1 10 -3 0 -8 -6 -13 -12z"/>
<path d="M3304 129 c-4 -8 -9 -20 -10 -29 -1 -8 -5 -23 -9 -32 -4 -11 -3 -18
4 -18 6 0 10 3 10 8 -3 17 2 31 15 45 8 8 11 19 6 26 -6 11 -9 10 -16 0z"/>
<path d="M3353 125 c-6 -7 -10 -15 -7 -18 2 -2 0 -16 -5 -31 -6 -14 -7 -26 -3
-26 7 0 35 80 30 85 -2 2 -8 -3 -15 -10z"/>
<path d="M213 103 c0 -15 -9 -33 -20 -41 -12 -10 -13 -13 -3 -10 19 6 45 57
34 68 -5 5 -10 -3 -11 -17z"/>
<path d="M283 123 c4 -3 1 -13 -6 -22 -11 -14 -10 -14 5 -2 16 12 16 31 1 31
-4 0 -3 -3 0 -7z"/>
<path d="M328 125 c-3 -6 -9 -26 -12 -45 -5 -26 -4 -31 3 -20 6 8 11 23 11 33
0 10 4 16 9 12 5 -3 13 0 17 6 4 7 3 9 -4 5 -5 -3 -12 -1 -14 6 -3 7 -7 8 -10
3z"/>
<path d="M557 111 c3 -10 0 -30 -7 -42 -11 -23 -10 -23 4 -5 18 22 21 52 7 60
-5 4 -7 -3 -4 -13z"/>
<path d="M913 103 c0 -15 -9 -33 -20 -41 -12 -9 -13 -13 -3 -10 22 7 47 55 35
67 -7 7 -11 1 -12 -16z"/>
<path d="M1072 123 c-11 -4 -42 -54 -42 -68 0 -3 8 -5 18 -5 13 0 14 2 4 9
-10 6 -7 15 13 39 15 18 25 32 23 31 -1 0 -9 -3 -16 -6z"/>
<path d="M1373 123 c4 -3 1 -13 -6 -22 -11 -14 -10 -14 5 -2 16 12 16 31 1 31
-4 0 -3 -3 0 -7z"/>
<path d="M1630 106 c-5 -13 -14 -27 -20 -31 -5 -3 -8 -11 -5 -16 12 -18 21 -9
32 31 11 44 8 54 -7 16z"/>
<path d="M1811 104 c-23 -29 -26 -40 -13 -48 4 -2 9 4 9 15 2 25 22 51 34 43
5 -3 2 -20 -7 -37 l-15 -32 21 24 c24 28 25 35 6 50 -11 9 -18 6 -35 -15z"/>
<path d="M2160 106 c-5 -13 -14 -27 -20 -31 -5 -3 -8 -11 -5 -16 12 -18 21 -9
32 31 11 44 8 54 -7 16z"/>
<path d="M2503 123 c4 -3 1 -13 -6 -22 -11 -14 -10 -14 5 -2 16 12 16 31 1 31
-4 0 -3 -3 0 -7z"/>
<path d="M2764 119 c-5 -8 -3 -9 6 -4 9 6 10 2 5 -16 -4 -13 -10 -29 -14 -34
-3 -6 2 -2 12 8 9 11 17 25 17 33 0 18 -17 27 -26 13z"/>
<path d="M2986 115 c4 -8 0 -23 -7 -33 -13 -15 -12 -16 4 -3 19 15 22 36 7 46
-6 3 -7 -1 -4 -10z"/>
<path d="M3254 114 c-4 -10 -14 -27 -22 -36 -13 -16 -13 -18 2 -24 10 -4 23
-1 29 6 9 10 9 11 0 6 -16 -9 -17 8 -2 36 6 11 8 22 5 25 -3 3 -9 -3 -12 -13z"/>
<path d="M250 101 c-15 -29 -12 -51 8 -51 12 0 14 2 4 8 -9 7 -10 15 -3 35 12
31 6 36 -9 8z"/>
<path d="M361 89 c-13 -39 -13 -39 -1 -39 6 0 9 3 8 8 -1 4 2 17 6 30 4 13 6
26 3 28 -3 3 -10 -9 -16 -27z"/>
<path d="M458 76 c3 -36 0 -46 -19 -60 -13 -9 -18 -16 -12 -16 24 0 49 47 45
84 -6 51 -18 45 -14 -8z"/>
<path d="M491 104 c0 -11 3 -14 6 -6 3 7 2 16 -1 19 -3 4 -6 -2 -5 -13z"/>
<path d="M520 99 c-6 -11 -10 -28 -8 -37 2 -10 8 -1 15 21 12 41 10 48 -7 16z"/>
<path d="M602 113 c1 -5 -2 -18 -6 -31 -10 -29 -1 -39 19 -22 10 8 15 9 15 1
0 -15 16 -14 18 2 0 6 3 23 6 37 l6 25 -12 -25 c-18 -35 -42 -39 -34 -5 4 14
2 25 -4 25 -5 0 -9 -3 -8 -7z"/>
<path d="M692 114 c4 -3 2 -19 -3 -37 -5 -18 -5 -27 0 -21 17 17 24 64 10 64
-7 0 -10 -3 -7 -6z"/>
<path d="M800 101 c-15 -29 -12 -51 8 -51 14 0 14 2 3 9 -12 8 -13 14 -3 35
13 30 8 35 -8 7z"/>
<path d="M954 103 c-1 -10 -4 -26 -9 -35 -4 -10 -3 -18 1 -18 5 0 14 16 20 35
8 26 8 35 0 35 -7 0 -12 -8 -12 -17z"/>
<path d="M1186 106 c3 -8 0 -25 -6 -38 -11 -22 -10 -22 4 -4 18 22 21 56 6 56
-5 0 -7 -6 -4 -14z"/>
<path d="M1232 95 c-14 -31 -15 -45 -4 -45 5 0 9 6 9 13 0 6 3 22 7 35 10 30
2 28 -12 -3z"/>
<path d="M1274 95 c-8 -13 -13 -29 -9 -35 11 -18 23 -11 18 10 -3 11 0 27 7
35 7 8 10 15 6 15 -3 0 -13 -11 -22 -25z"/>
<path d="M1306 103 c-6 -14 -5 -15 5 -6 7 7 10 15 7 18 -3 3 -9 -2 -12 -12z"/>
<path d="M1340 101 c-15 -29 -12 -51 8 -51 12 0 14 2 4 8 -9 7 -10 15 -3 35
12 31 6 36 -9 8z"/>
<path d="M1406 98 c-9 -12 -16 -28 -16 -35 0 -15 26 -17 35 -3 3 6 -1 7 -9 4
-20 -8 -20 0 0 31 20 31 11 33 -10 3z"/>
<path d="M1771 103 c0 -12 -8 -29 -17 -37 -8 -9 -11 -16 -5 -16 15 0 33 38 28
58 -4 13 -5 11 -6 -5z"/>
<path d="M1884 93 c4 -24 1 -33 -12 -36 -15 -4 -15 -5 1 -6 23 -1 30 19 17 50
-10 22 -10 22 -6 -8z"/>
<path d="M1974 111 c4 -6 0 -24 -10 -39 l-17 -27 21 19 c24 21 28 41 10 52 -7
4 -8 3 -4 -5z"/>
<path d="M2014 85 c-6 -19 -8 -35 -4 -35 4 0 11 16 17 35 6 19 8 35 5 35 -4 0
-12 -16 -18 -35z"/>
<path d="M2332 103 c-17 -31 -15 -53 6 -53 13 0 14 2 3 9 -9 6 -10 14 -4 26 5
9 13 16 16 16 20 -3 27 0 27 10 0 8 -4 8 -14 0 -11 -9 -15 -9 -18 1 -3 8 -9 5
-16 -9z"/>
<path d="M2393 85 c-1 -19 3 -35 8 -35 6 0 8 4 5 9 -4 5 -2 21 4 35 7 19 6 26
-3 26 -7 0 -13 -15 -14 -35z"/>
<path d="M2441 104 c0 -11 3 -14 6 -6 3 7 2 16 -1 19 -3 4 -6 -2 -5 -13z"/>
<path d="M2470 101 c-15 -29 -12 -51 8 -51 12 0 14 2 4 8 -9 7 -10 15 -3 35
12 31 6 36 -9 8z"/>
<path d="M2533 82 c-2 -36 -1 -36 12 -13 7 14 11 31 8 38 -9 24 -18 13 -20
-25z"/>
<path d="M2605 76 c0 -30 3 -41 11 -36 10 9 7 80 -5 80 -3 0 -6 -20 -6 -44z"/>
<path d="M2641 113 c-1 -6 -4 -20 -7 -30 -5 -17 -5 -17 6 0 6 10 9 23 6 30 -3
9 -5 9 -5 0z"/>
<path d="M2817 103 c-2 -10 -8 -26 -12 -35 -4 -10 -3 -18 1 -18 5 0 14 16 20
35 6 19 8 35 4 35 -4 0 -10 -8 -13 -17z"/>
<path d="M2866 106 c3 -8 0 -25 -6 -38 -7 -13 -8 -18 -4 -13 5 6 19 21 31 35
l22 26 -24 2 c-17 1 -23 -2 -19 -12z"/>
<path d="M2912 95 c-14 -31 -15 -45 -4 -45 5 0 9 6 9 13 0 6 3 22 7 35 10 30
2 28 -12 -3z"/>
<path d="M2957 113 c-4 -3 -7 -16 -6 -27 0 -19 1 -19 10 3 10 24 8 36 -4 24z"/>
<path d="M3076 106 c3 -8 0 -25 -6 -38 -7 -13 -8 -18 -4 -13 5 6 19 21 31 35
l22 26 -24 2 c-17 1 -23 -2 -19 -12z"/>
<path d="M3122 91 c-16 -45 -15 -50 4 -23 8 12 14 30 12 40 -3 11 -8 6 -16
-17z"/>
<path d="M3167 103 c-2 -10 -8 -26 -12 -35 -4 -11 -3 -18 4 -18 6 0 10 3 9 8
-1 4 2 17 6 30 4 13 6 26 3 28 -2 3 -7 -3 -10 -13z"/>
<path d="M3211 94 c-23 -29 -27 -44 -11 -44 6 0 10 8 10 17 0 9 7 25 17 35 9
10 13 18 10 18 -3 0 -15 -12 -26 -26z"/>
<path d="M3402 108 c-19 -19 -15 -58 6 -58 14 0 14 2 3 9 -12 8 -13 14 -3 35
13 29 12 32 -6 14z"/>
<path d="M3464 111 c4 -5 2 -22 -4 -38 -9 -26 -9 -27 5 -9 17 23 20 56 4 56
-5 0 -8 -4 -5 -9z"/>
<path d="M3525 91 c5 -15 2 -27 -6 -33 -11 -8 -11 -9 1 -5 19 5 25 36 10 51
-10 8 -11 6 -5 -13z"/>
<path d="M157 78 c-9 -31 -2 -33 11 -3 6 14 8 25 3 25 -5 0 -11 -10 -14 -22z"/>
<path d="M855 79 c-10 -30 0 -33 13 -4 6 14 7 25 2 25 -5 0 -12 -9 -15 -21z"/>
<path d="M1580 81 c-12 -24 -13 -31 -1 -31 5 0 11 11 13 25 6 30 2 32 -12 6z"/>
<path d="M2110 81 c-13 -25 -13 -31 2 -31 6 0 8 3 5 6 -3 4 -2 15 4 25 5 11 7
19 5 19 -3 0 -10 -9 -16 -19z"/>
<path d="M2241 54 c0 -11 3 -14 6 -6 3 7 2 16 -1 19 -3 4 -6 -2 -5 -13z"/>
<path d="M3565 60 c-3 -5 -1 -10 4 -10 6 0 11 5 11 10 0 6 -2 10 -4 10 -3 0
-8 -4 -11 -10z"/>
<path d="M2941 39 c-15 -25 -2 -43 25 -36 15 4 14 5 -4 6 -14 0 -22 6 -20 13
7 19 25 20 43 1 12 -11 17 -13 14 -4 -3 8 -14 20 -25 27 -17 12 -21 11 -33 -7z"/>
</g>
</svg>
