<?xml version="1.0" standalone="no"?>
<!DOCTYPE svg PUBLIC "-//W3C//DTD SVG 20010904//EN"
 "http://www.w3.org/TR/2001/REC-SVG-20010904/DTD/svg10.dtd">
<svg version="1.0" xmlns="http://www.w3.org/2000/svg"
 width="225.000000pt" height="225.000000pt" viewBox="0 0 225.000000 225.000000"
 preserveAspectRatio="xMidYMid meet">

<g transform="translate(0.000000,225.000000) scale(0.100000,-0.100000)"
fill="#000000" stroke="none">
<path d="M890 2108 c-30 -33 -74 -131 -67 -152 2 -6 11 12 21 39 9 28 23 59
31 69 14 19 15 19 15 -8 0 -16 4 -25 10 -21 6 4 10 16 8 28 -2 14 3 23 16 25
11 3 16 0 12 -7 -4 -7 1 -11 13 -11 14 0 19 -5 15 -15 -4 -8 -1 -15 5 -15 6 0
11 -7 11 -15 0 -8 5 -15 10 -15 6 0 10 -9 10 -19 0 -10 7 -21 15 -25 20 -7 19
-5 -8 46 -13 24 -31 63 -40 86 -9 23 -23 42 -31 42 -8 0 -29 -15 -46 -32z"/>
<path d="M811 1904 c0 -11 3 -14 6 -6 3 7 2 16 -1 19 -3 4 -6 -2 -5 -13z"/>
<path d="M820 1671 c0 -5 15 -14 33 -21 17 -8 40 -20 49 -28 9 -8 23 -12 30
-9 8 4 5 8 -9 12 -13 4 -23 11 -23 16 0 9 -53 39 -70 39 -5 0 -10 -4 -10 -9z"/>
<path d="M578 1663 c7 -3 16 -2 19 1 4 3 -2 6 -13 5 -11 0 -14 -3 -6 -6z"/>
<path d="M469 1637 c-24 -13 -44 -30 -44 -37 0 -14 88 -44 108 -37 7 2 -5 11
-26 20 -46 20 -44 37 8 59 27 12 33 17 19 17 -11 1 -41 -9 -65 -22z"/>
<path d="M1770 1618 c-8 -13 -20 -36 -27 -51 -7 -16 -24 -42 -38 -59 -23 -27
-33 -58 -19 -58 12 0 35 31 32 42 -3 7 9 23 25 37 16 13 32 34 37 45 17 47 21
66 13 66 -4 0 -15 -10 -23 -22z"/>
<path d="M579 1545 c18 -8 43 -15 55 -14 12 0 1 7 -24 15 -58 18 -74 17 -31
-1z"/>
<path d="M1216 1538 c4 -7 3 -8 -5 -4 -29 18 -171 -115 -219 -205 -21 -39 -21
-41 -3 -19 11 14 21 27 21 30 0 14 40 7 40 -6 0 -8 -4 -13 -9 -10 -11 7 -21
-17 -21 -47 0 -18 2 -19 10 -7 7 12 12 12 21 3 10 -10 9 -14 -4 -19 -9 -3 -17
-14 -17 -23 0 -11 9 -16 33 -16 17 0 38 4 45 8 6 5 12 6 12 4 0 -12 58 52 80
87 14 23 26 34 28 27 2 -7 -2 -17 -9 -22 -12 -8 -12 -10 0 -18 7 -5 11 -13 7
-19 -3 -6 -1 -14 5 -17 5 -4 8 -13 5 -21 -4 -10 3 -14 23 -14 23 0 31 -6 40
-31 6 -17 9 -35 6 -39 -3 -5 7 -6 22 -4 23 3 31 -1 46 -27 10 -18 20 -29 23
-26 3 3 -1 16 -10 29 -9 12 -16 30 -16 39 0 9 -7 22 -15 29 -8 7 -15 24 -15
39 0 15 -5 32 -11 38 -6 6 -14 63 -19 127 -4 64 -9 118 -11 120 -28 24 -96 36
-83 14z m-16 -28 c0 -5 -7 -10 -16 -10 -8 0 -12 5 -9 10 3 6 10 10 16 10 5 0
9 -4 9 -10z m90 -25 c0 -8 -2 -15 -4 -15 -2 0 -6 7 -10 15 -3 8 -1 15 4 15 6
0 10 -7 10 -15z m-80 1 c0 -2 -7 -6 -15 -10 -8 -3 -15 -1 -15 4 0 6 7 10 15
10 8 0 15 -2 15 -4z m50 -16 c0 -5 -4 -10 -10 -10 -5 0 -10 5 -10 10 0 6 5 10
10 10 6 0 10 -4 10 -10z m-125 -10 c-3 -5 -11 -10 -16 -10 -6 0 -7 5 -4 10 3
6 11 10 16 10 6 0 7 -4 4 -10z m93 -2 c-6 -18 -28 -21 -28 -4 0 9 7 16 16 16
9 0 14 -5 12 -12z m46 -49 c-3 -5 -10 -7 -15 -3 -5 3 -7 10 -3 15 3 5 10 7 15
3 5 -3 7 -10 3 -15z m-49 -25 c-23 -17 -34 -2 -14 22 9 11 15 12 23 4 8 -8 6
-15 -9 -26z m-175 -5 c-12 -16 -25 -28 -28 -25 -5 6 36 56 45 56 3 0 -5 -14
-17 -31z m250 1 c0 -5 -5 -10 -11 -10 -5 0 -7 5 -4 10 3 6 8 10 11 10 2 0 4
-4 4 -10z m-33 -57 c-11 -10 -26 8 -20 23 5 15 7 14 15 -1 6 -9 7 -19 5 -22z
m33 17 c0 -5 -4 -10 -10 -10 -5 0 -10 5 -10 10 0 6 5 10 10 10 6 0 10 -4 10
-10z m-21 -66 c6 -15 9 -29 7 -32 -10 -9 -36 20 -36 39 0 27 15 23 29 -7z m41
-4 c0 -5 -4 -10 -10 -10 -5 0 -10 5 -10 10 0 6 5 10 10 10 6 0 10 -4 10 -10z
m10 -45 c0 -8 -4 -15 -10 -15 -5 0 -10 7 -10 15 0 8 5 15 10 15 6 0 10 -7 10
-15z m15 -45 c-5 -8 -11 -8 -21 1 -12 10 -12 14 -2 20 16 10 33 -5 23 -21z"/>
<path d="M89 1428 c-6 -18 -4 -48 3 -48 5 0 6 -4 3 -10 -3 -5 1 -10 9 -10 19
0 30 17 16 25 -18 11 -10 23 14 21 17 -2 23 1 19 10 -4 11 -61 21 -64 12z"/>
<path d="M190 1411 c0 -5 -9 -12 -19 -16 -28 -9 -33 -31 -8 -33 17 -1 18 1 7
8 -13 8 -13 10 0 14 31 9 62 14 56 9 -3 -4 0 -13 7 -22 10 -14 10 -14 -4 -4
-9 7 -19 10 -23 6 -4 -4 4 -12 16 -19 21 -12 22 -13 4 -20 -11 -4 -21 -2 -26
7 -5 7 -12 10 -16 7 -7 -8 20 -38 34 -38 6 0 12 6 15 13 4 10 7 10 18 0 9 -10
10 -13 1 -13 -7 0 -12 -9 -12 -20 0 -14 7 -20 23 -21 12 0 16 -3 10 -6 -18 -7
-16 -23 5 -46 17 -20 17 -20 -18 -3 -29 14 -31 14 -15 1 11 -8 28 -22 38 -30
10 -9 23 -13 29 -9 7 5 9 -2 5 -21 -7 -41 1 -57 23 -45 9 5 20 6 24 3 3 -3 6
-2 6 4 0 7 12 8 38 2 52 -12 65 -11 59 5 -6 15 36 32 52 21 5 -3 11 2 15 10 3
8 10 15 15 15 6 0 7 -7 4 -17 -4 -11 -3 -14 5 -9 7 4 12 16 12 27 0 11 7 19
18 19 14 0 15 -2 2 -10 -11 -7 -12 -12 -4 -20 8 -8 14 -8 18 -1 4 5 14 7 23 4
9 -4 21 1 29 12 13 17 14 17 14 2 0 -9 5 -17 10 -17 6 0 10 7 10 15 0 8 6 12
13 10 6 -3 19 -1 27 5 13 8 12 11 -5 24 -31 24 -88 37 -175 40 -45 1 -85 8
-94 15 -9 7 -23 11 -31 7 -8 -3 -15 -1 -15 4 0 20 -74 82 -123 104 -70 32 -97
39 -97 27z m100 -61 c0 -5 -2 -10 -4 -10 -3 0 -8 5 -11 10 -3 6 -1 10 4 10 6
0 11 -4 11 -10z m355 -160 c3 -5 -1 -10 -10 -10 -9 0 -13 5 -10 10 3 6 8 10
10 10 2 0 7 -4 10 -10z"/>
<path d="M113 1325 c7 -14 16 -25 20 -25 5 0 5 -4 2 -10 -3 -5 0 -10 8 -10 12
0 12 5 -1 35 -9 19 -22 35 -28 35 -9 0 -9 -6 -1 -25z"/>
<path d="M160 1309 c0 -5 5 -7 10 -4 6 3 10 8 10 11 0 2 -4 4 -10 4 -5 0 -10
-5 -10 -11z"/>
<path d="M165 1240 c-13 -15 -14 -20 -5 -20 11 0 11 -3 2 -12 -15 -15 -16 -32
-1 -22 8 4 9 -1 4 -16 -5 -16 -4 -20 5 -15 9 5 10 2 5 -14 -5 -17 -3 -20 11
-14 13 5 15 2 9 -16 -6 -20 -4 -21 21 -15 23 6 26 4 21 -10 -6 -14 -4 -14 20
1 26 17 27 17 20 0 -3 -9 -2 -17 3 -17 6 0 10 9 10 21 0 15 -4 19 -16 15 -24
-9 -65 20 -58 42 5 14 4 14 -5 2 -16 -23 -25 -4 -25 55 -1 30 -1 55 -2 55 0 0
-9 -9 -19 -20z"/>
<path d="M1127 1202 c-15 -10 -30 -25 -33 -34 -3 -10 -9 -18 -13 -18 -11 0
-28 -43 -40 -99 -8 -35 -6 -49 5 -65 8 -11 14 -37 14 -58 0 -21 5 -38 11 -38
15 0 1 -42 -20 -58 -14 -12 -12 -12 12 -6 15 3 27 2 26 -2 -4 -23 3 -33 24
-37 l22 -4 -22 -2 c-15 -1 -23 -7 -23 -20 0 -11 10 -22 23 -26 16 -5 18 -8 6
-11 -11 -4 -15 -16 -14 -47 1 -23 5 -49 8 -57 3 -8 5 -23 4 -33 0 -16 -2 -16
-26 0 -49 31 -55 42 -31 51 21 8 21 8 -4 20 -17 7 -29 23 -32 42 -4 16 -13 35
-20 41 -19 15 -18 28 4 52 16 19 16 20 -6 8 -25 -13 -46 -6 -39 13 3 7 -5 26
-19 42 -13 16 -24 38 -24 49 0 11 -5 27 -10 35 -7 10 -10 -8 -10 -61 0 -74 -1
-77 -25 -83 -14 -4 -35 -1 -46 5 -28 14 -159 59 -173 59 -6 -1 4 -7 22 -15 44
-19 64 -41 66 -70 1 -18 7 -25 21 -25 16 0 17 -2 5 -10 -8 -5 -11 -12 -7 -16
4 -4 -1 -16 -10 -27 -17 -19 -17 -20 5 -8 36 19 28 -9 -15 -46 -28 -25 -32
-31 -15 -26 12 3 29 0 37 -7 9 -7 18 -10 22 -6 3 3 1 6 -6 6 -9 0 -8 4 3 15
18 19 27 19 20 1 -4 -11 0 -13 15 -9 16 4 21 1 21 -16 0 -14 5 -19 15 -15 8 4
15 1 15 -5 0 -6 6 -11 14 -11 8 0 18 -9 21 -21 5 -16 10 -18 21 -8 11 9 14 8
14 -4 0 -18 40 -12 41 7 0 6 4 2 9 -9 7 -15 9 -7 8 29 -1 30 2 51 9 53 6 2 29
-7 51 -22 21 -14 74 -39 117 -56 83 -31 112 -34 45 -4 -22 10 -40 22 -40 27 0
10 3 10 35 -2 38 -15 53 -1 24 22 -13 11 -17 18 -8 15 12 -4 15 0 11 19 -2 13
-9 24 -14 24 -5 0 -6 5 -3 10 3 6 -5 14 -18 19 -35 14 -48 36 -16 28 21 -5 22
-4 7 7 -15 11 -15 13 0 24 15 10 15 11 1 6 -10 -3 -20 -1 -24 5 -4 7 9 11 37
12 24 1 34 3 23 6 -35 7 -75 25 -75 33 0 4 17 15 38 23 20 9 30 16 21 16 -9 1
-30 -6 -48 -15 -18 -9 -35 -13 -38 -10 -4 3 -1 6 5 6 7 0 12 6 12 14 0 8 10
22 23 32 l22 16 -22 -5 c-52 -12 -17 34 62 81 22 13 31 21 20 17 -88 -33 -90
-33 -97 -22 -4 7 -1 17 8 24 14 10 14 12 -3 21 -10 5 -24 7 -30 5 -7 -3 -13 0
-13 7 0 6 4 9 9 6 5 -3 12 10 15 29 4 19 14 41 22 50 23 23 10 49 -21 41 -28
-7 -33 5 -10 24 12 10 13 15 3 21 -9 6 -8 13 6 28 22 25 20 25 -17 3z"/>
<path d="M1250 1201 c-15 -29 -12 -41 10 -41 11 0 20 5 20 10 0 6 -4 10 -9 10
-5 0 -7 9 -4 20 7 25 -3 26 -17 1z"/>
<path d="M742 1181 c-7 -4 -12 -14 -10 -21 2 -8 -2 -14 -9 -15 -6 0 -15 -3
-19 -7 -4 -5 -21 -8 -37 -8 -25 0 -28 -2 -17 -15 9 -11 16 -12 25 -5 9 8 15 7
18 -2 4 -10 8 -10 16 2 7 9 11 10 11 3 0 -9 8 -9 30 -2 32 12 42 45 15 55 -8
4 -12 10 -9 15 6 11 3 11 -14 0z"/>
<path d="M260 1160 c0 -5 5 -10 10 -10 6 0 10 5 10 10 0 6 -4 10 -10 10 -5 0
-10 -4 -10 -10z"/>
<path d="M630 1139 c0 -5 5 -7 10 -4 6 3 10 8 10 11 0 2 -4 4 -10 4 -5 0 -10
-5 -10 -11z"/>
<path d="M586 1125 c-3 -8 -10 -15 -16 -15 -6 0 -8 5 -4 11 4 7 -10 0 -31 -14
-21 -14 -43 -23 -48 -20 -6 3 -7 2 -4 -4 3 -5 -12 -14 -34 -20 -27 -7 -39 -7
-39 0 0 7 -4 7 -12 -1 -7 -7 -21 -12 -32 -12 -16 0 -18 2 -7 9 9 6 4 8 -17 7
-17 -1 -34 -5 -39 -9 -4 -5 0 -5 10 -1 14 5 16 2 10 -12 -5 -13 -3 -16 10 -11
9 3 17 3 17 -2 0 -10 51 -8 68 3 7 4 16 5 21 1 5 -3 16 1 24 9 8 8 18 12 22 8
3 -4 13 2 21 12 10 14 14 16 14 5 1 -11 3 -10 10 3 6 10 30 19 60 23 52 7 58
13 38 33 -16 16 -35 15 -42 -3z"/>
<path d="M375 1100 c-3 -5 -2 -10 4 -10 5 0 13 5 16 10 3 6 2 10 -4 10 -5 0
-13 -4 -16 -10z"/>
<path d="M410 1089 c0 -5 5 -7 10 -4 6 3 10 8 10 11 0 2 -4 4 -10 4 -5 0 -10
-5 -10 -11z"/>
<path d="M1277 1083 c3 -6 23 -21 46 -33 41 -20 41 -20 17 -1 -14 11 -29 21
-34 21 -4 0 -6 6 -3 13 3 7 -3 13 -13 13 -10 0 -16 -6 -13 -13z"/>
<path d="M1378 1072 c-10 -2 -18 -8 -18 -13 0 -6 5 -7 12 -3 8 5 9 2 5 -10 -4
-10 -7 -20 -7 -22 0 -2 -4 -4 -10 -4 -5 0 -26 -12 -47 -26 -34 -23 -35 -25
-10 -19 23 6 27 4 27 -13 0 -11 7 -25 15 -32 8 -7 12 -16 9 -21 -3 -5 0 -9 6
-9 6 0 10 -8 9 -17 -2 -10 2 -28 9 -40 12 -21 11 -23 -15 -24 -27 -1 -27 -1 7
-13 27 -10 36 -20 41 -46 10 -49 3 -61 -29 -49 -23 8 -25 7 -10 -4 12 -10 15
-23 11 -60 -4 -33 -10 -47 -18 -43 -9 3 -12 -6 -11 -31 2 -47 -14 -66 -55 -66
-34 1 -34 1 16 -23 54 -25 90 -30 100 -14 4 7 -2 9 -19 4 -33 -8 -49 22 -22
42 10 7 15 17 11 23 -3 6 5 16 18 22 29 13 87 -12 87 -37 0 -11 6 -14 16 -10
9 3 18 6 20 6 3 0 2 15 -1 33 -5 25 -2 37 11 48 9 8 20 14 23 14 3 0 6 18 6
39 0 23 5 41 13 43 23 8 12 44 -28 86 -33 34 -39 47 -35 68 5 20 1 31 -13 41
-27 20 -35 37 -23 52 9 11 4 18 -24 35 -41 24 -49 26 -39 10 4 -7 2 -9 -7 -5
-8 3 -22 9 -32 12 -17 6 -17 8 3 29 25 27 23 52 -2 47z m28 -100 c17 -11 26
-72 11 -72 -23 0 -37 16 -43 48 -7 32 6 42 32 24z m45 -15 c-1 -12 -15 -9 -19
4 -3 6 1 10 8 8 6 -3 11 -8 11 -12z m17 -63 c-10 -10 -28 6 -28 24 0 15 1 15
17 -1 9 -9 14 -19 11 -23z m-10 -43 c2 -14 11 -36 20 -49 16 -25 16 -25 -8
-12 -54 27 -83 95 -37 88 15 -2 23 -11 25 -27z m40 1 c2 -7 -3 -12 -12 -12 -9
0 -16 7 -16 16 0 17 22 14 28 -4z m27 -80 c-6 -7 -34 29 -34 43 0 6 9 -1 20
-14 11 -13 17 -26 14 -29z m-10 -65 c0 -26 -1 -47 -4 -47 -15 0 -41 37 -41 60
0 31 8 42 30 38 11 -2 15 -16 15 -51z m55 20 c0 -7 -5 -18 -11 -24 -6 -6 -9
-21 -7 -34 2 -15 -7 -35 -22 -52 -15 -18 -24 -38 -22 -53 2 -13 -1 -24 -7 -24
-6 0 -11 4 -11 9 0 5 -10 11 -23 15 -34 8 -53 49 -39 81 12 26 27 31 51 16 10
-7 11 -13 1 -30 -6 -12 -9 -27 -7 -34 3 -7 10 0 16 16 6 16 18 27 29 27 15 0
18 7 17 38 -1 20 0 43 3 50 6 16 32 16 32 -1z"/>
<path d="M217 860 c-91 -31 -140 -57 -132 -70 2 -4 -4 -15 -15 -25 -22 -20
-28 -8 -8 15 10 10 6 10 -12 -2 -34 -21 -46 -72 -25 -105 22 -33 119 -79 123
-58 2 8 9 15 16 15 15 0 55 -29 40 -30 -5 0 -15 5 -22 12 -7 7 -12 8 -12 2 0
-15 22 -34 38 -34 8 0 30 -14 49 -30 18 -16 38 -30 43 -30 6 0 10 -5 10 -11 0
-7 16 -27 35 -46 26 -25 35 -29 35 -17 0 10 5 14 14 11 10 -4 13 -1 9 9 -4 11
-9 12 -19 3 -21 -17 -49 8 -33 28 10 11 14 12 22 1 6 -10 7 -9 3 4 -2 9 -1 30
3 45 5 16 4 39 0 52 -14 37 2 47 17 11 11 -25 11 -36 3 -46 -9 -11 -8 -14 5
-14 9 0 16 -7 16 -16 0 -15 22 -44 34 -44 3 0 4 14 3 30 -1 18 -7 28 -14 26
-6 -3 -16 1 -22 8 -8 10 -6 18 9 31 11 10 17 22 13 28 -3 5 -2 8 3 4 5 -3 17
1 27 8 12 8 14 15 8 20 -6 3 -11 2 -11 -2 0 -5 -9 -9 -19 -9 -11 0 -17 4 -15
8 8 13 -11 9 -25 -4 -11 -11 -12 -10 -6 1 5 9 4 12 -3 7 -7 -4 -12 -1 -12 8 0
13 -4 12 -20 -4 -19 -19 -21 -19 -40 -3 -26 22 -25 44 1 72 l22 23 -32 -7
c-41 -9 -39 -2 6 25 27 16 33 24 23 30 -10 6 -8 9 6 13 13 3 11 5 -8 6 -16 0
-28 -3 -28 -9 0 -5 -7 -7 -16 -3 -14 5 -13 8 6 18 22 12 22 12 -9 18 -39 8
-69 -1 -49 -15 11 -8 10 -9 -1 -6 -8 2 -15 11 -17 20 -1 11 3 15 12 11 8 -3
14 -1 14 5 0 6 19 17 43 25 23 9 33 16 22 16 -11 0 -59 -13 -108 -29z m-61
-45 c-11 -8 -22 -12 -25 -9 -6 6 19 24 34 24 6 -1 1 -7 -9 -15z m-56 -59 c0
-3 -4 -8 -10 -11 -5 -3 -10 -1 -10 4 0 6 5 11 10 11 6 0 10 -2 10 -4z m-38
-38 c-7 -7 -12 -8 -12 -2 0 14 12 26 19 19 2 -3 -1 -11 -7 -17z m48 -18 c-37
-29 -44 -24 -19 11 16 23 24 28 33 19 8 -8 5 -16 -14 -30z m-70 4 c0 -8 -4
-12 -10 -9 -5 3 -10 10 -10 16 0 5 5 9 10 9 6 0 10 -7 10 -16z m150 -9 c0 -8
-7 -15 -15 -15 -9 0 -18 -7 -21 -15 -4 -8 -14 -15 -23 -15 -14 1 -14 2 1 14
10 7 15 16 11 20 -8 8 15 26 35 26 6 0 12 -7 12 -15z m50 -20 c0 -8 -7 -15
-16 -15 -14 0 -14 3 -4 15 7 8 14 15 16 15 2 0 4 -7 4 -15z m-170 -16 c0 -6
-4 -7 -10 -4 -5 3 -10 11 -10 16 0 6 5 7 10 4 6 -3 10 -11 10 -16z m40 -19 c0
-5 -4 -10 -10 -10 -5 0 -10 5 -10 10 0 6 5 10 10 10 6 0 10 -4 10 -10z m114
-5 c3 -8 2 -15 -3 -15 -5 0 -14 7 -21 15 -10 12 -10 15 3 15 8 0 17 -7 21 -15z
m88 0 c0 -5 -5 -11 -11 -13 -6 -2 -11 4 -11 13 0 9 5 15 11 13 6 -2 11 -8 11
-13z m-172 -5 c0 -5 -4 -10 -10 -10 -5 0 -10 5 -10 10 0 6 5 10 10 10 6 0 10
-4 10 -10z m150 -25 c21 -25 3 -29 -26 -6 -24 19 -25 21 -7 21 11 0 26 -7 33
-15z m-50 -15 c0 -5 -2 -10 -4 -10 -3 0 -8 5 -11 10 -3 6 -1 10 4 10 6 0 11
-4 11 -10z m30 -20 c0 -5 -4 -10 -10 -10 -5 0 -10 5 -10 10 0 6 5 10 10 10 6
0 10 -4 10 -10z m94 -12 c5 -9 7 -20 4 -24 -7 -7 -57 27 -58 39 0 15 43 3 54
-15z m-36 -30 c3 2 8 -1 10 -7 2 -6 0 -11 -5 -11 -15 1 -43 27 -43 41 1 9 6 7
16 -6 8 -11 18 -19 22 -17z"/>
<path d="M343 688 c-13 -6 -23 -15 -23 -19 0 -4 14 -1 30 7 29 15 39 25 23 23
-5 0 -18 -5 -30 -11z"/>
<path d="M518 576 c-19 -14 -25 -66 -9 -66 5 0 13 9 16 21 5 16 10 18 20 9 8
-7 19 -9 25 -5 12 8 13 26 1 23 -5 -2 -16 5 -23 14 -11 14 -16 15 -30 4z"/>
<path d="M625 550 c3 -5 8 -10 11 -10 2 0 4 5 4 10 0 6 -5 10 -11 10 -5 0 -7
-4 -4 -10z"/>
<path d="M549 499 c-25 -27 -43 -49 -40 -49 3 -1 -5 -7 -19 -15 -29 -16 -54
-20 -45 -6 11 19 -15 21 -34 2 -22 -22 -18 -31 16 -31 13 0 23 -6 23 -15 0 -7
7 -18 16 -23 9 -5 18 -20 19 -33 1 -13 3 -30 4 -37 0 -7 6 -10 11 -7 19 12 48
-6 53 -33 4 -20 14 -30 40 -38 28 -8 34 -8 30 3 -8 21 15 15 27 -6 16 -30 13
-46 -5 -31 -21 17 -19 3 6 -36 19 -32 31 -39 54 -34 5 1 26 -4 47 -11 31 -10
39 -9 53 5 20 20 29 20 49 0 18 -18 47 -15 54 5 3 9 -2 11 -17 6 -13 -4 -31
-1 -44 8 -19 13 -24 13 -36 0 -9 -10 -16 -12 -24 -4 -7 7 -5 17 8 31 16 18 17
20 2 14 -14 -5 -17 0 -17 25 0 18 6 34 13 37 22 8 67 -14 77 -38 5 -14 9 -17
10 -8 0 8 7 23 14 33 11 15 19 16 34 8 13 -7 22 -7 30 1 13 13 32 2 32 -18 0
-17 -38 -53 -57 -54 -6 0 -14 -4 -17 -8 -13 -22 34 -2 61 25 31 32 33 42 18
121 -7 40 -23 43 -17 2 3 -24 0 -31 -19 -39 -18 -6 -26 -5 -32 6 -7 11 -19 13
-48 8 -24 -4 -50 -2 -68 6 -27 12 -31 19 -34 64 -3 49 -3 49 -5 -11 -2 -57 -4
-61 -24 -59 -13 1 -24 4 -25 5 -3 3 -18 7 -33 9 -5 0 -10 14 -10 31 0 21 -4
28 -14 24 -8 -3 -20 3 -27 13 -8 10 -21 18 -29 18 -10 0 -14 9 -13 30 1 17 -1
22 -3 12 -5 -14 -9 -16 -20 -6 -8 6 -14 18 -14 25 0 8 -7 14 -15 14 -24 0 -18
14 26 64 54 62 36 58 -22 -5z m-39 -84 c0 -8 -4 -15 -10 -15 -5 0 -10 7 -10
15 0 8 5 15 10 15 6 0 10 -7 10 -15z m-10 -48 c0 -10 -4 -15 -10 -12 -5 3 -10
13 -10 21 0 8 -4 14 -10 14 -5 0 -10 5 -10 10 0 6 8 5 20 -2 11 -7 20 -21 20
-31z m50 18 c7 -8 16 -12 21 -9 5 3 9 -9 9 -25 0 -35 -10 -38 -45 -15 -15 10
-25 26 -25 40 0 27 21 32 40 9z m-30 -66 c0 -5 -4 -9 -10 -9 -5 0 -10 7 -10
16 0 8 5 12 10 9 6 -3 10 -10 10 -16z m50 -36 c0 -13 -3 -13 -15 -3 -8 7 -15
19 -15 27 0 13 3 13 15 3 8 -7 15 -19 15 -27z m73 11 c4 -7 14 -20 22 -28 9
-9 11 -17 6 -21 -20 -12 0 -35 25 -29 16 4 30 -1 48 -20 27 -26 35 -52 14 -43
-7 3 -21 8 -30 12 -11 4 -18 3 -18 -4 0 -6 6 -11 14 -11 19 0 63 -37 54 -46
-5 -4 -16 0 -27 10 -13 12 -27 15 -45 10 -19 -5 -26 -2 -26 9 0 8 6 18 13 21
8 3 7 8 -5 16 -10 6 -18 17 -18 24 0 15 -65 76 -80 76 -11 0 -14 33 -3 43 9
10 46 -3 56 -19z m-32 -50 c11 -14 10 -15 -11 -12 -13 1 -25 9 -28 16 -5 17
23 15 39 -4z"/>
<path d="M535 520 c3 -5 8 -10 11 -10 2 0 4 5 4 10 0 6 -5 10 -11 10 -5 0 -7
-4 -4 -10z"/>
<path d="M668 508 c-7 -16 18 -35 30 -23 3 3 0 5 -6 5 -6 0 -12 8 -14 18 -3
15 -4 16 -10 0z"/>
<path d="M1447 500 c-13 -15 -14 -20 -3 -20 7 0 16 9 19 20 3 11 4 20 3 20 -1
0 -9 -9 -19 -20z"/>
<path d="M1001 484 c0 -11 3 -14 6 -6 3 7 2 16 -1 19 -3 4 -6 -2 -5 -13z"/>
<path d="M704 465 c-9 -14 -15 -27 -13 -30 3 -2 12 10 21 26 21 36 15 39 -8 4z"/>
<path d="M953 402 c0 -12 5 -22 9 -22 11 0 10 12 -2 30 -7 12 -9 10 -7 -8z"/>
<path d="M682 385 c0 -16 2 -22 5 -12 2 9 2 23 0 30 -3 6 -5 -1 -5 -18z"/>
<path d="M820 163 c1 -5 16 -15 34 -24 33 -15 34 -15 39 7 3 19 2 21 -14 11
-14 -9 -21 -9 -31 1 -13 13 -28 16 -28 5z"/>
</g>
</svg>
