<?xml version="1.0" standalone="no"?>
<!DOCTYPE svg PUBLIC "-//W3C//DTD SVG 20010904//EN"
 "http://www.w3.org/TR/2001/REC-SVG-20010904/DTD/svg10.dtd">
<svg version="1.0" xmlns="http://www.w3.org/2000/svg"
 width="222.000000pt" height="227.000000pt" viewBox="0 0 222.000000 227.000000"
 preserveAspectRatio="xMidYMid meet">
<metadata>
Created by potrace 1.16, written by Peter Selinger 2001-2019
</metadata>
<g transform="translate(0.000000,227.000000) scale(0.100000,-0.100000)"
fill="#000000" stroke="none">
<path d="M193 2098 l-193 -171 0 -598 0 -598 188 -175 c187 -175 187 -175 234
-176 37 0 48 -4 53 -19 3 -11 94 -97 201 -190 l194 -171 385 0 385 0 203 163
202 163 3 512 2 512 85 0 85 0 0 290 0 290 -335 0 -335 0 -102 93 c-56 50
-140 127 -187 170 l-86 77 -395 0 -395 -1 -192 -171z m1112 -59 c123 -112 167
-159 172 -180 l6 -29 321 0 321 0 -3 -195 -3 -195 -84 0 -85 0 0 -534 0 -533
-169 -137 -169 -136 -355 0 -356 0 -166 145 c-154 136 -165 148 -165 180 l0
35 -74 0 c-87 0 -73 -9 -274 179 l-132 124 0 566 0 566 141 125 c216 192 144
170 556 170 l352 0 166 -151z"/>
<path d="M334 1977 l-139 -123 -3 -524 -2 -524 92 -94 c51 -52 115 -112 141
-133 49 -39 49 -39 138 -39 l89 0 0 -59 0 -59 118 -104 c188 -167 126 -149
498 -146 l319 3 130 104 c72 57 137 110 145 118 13 12 15 87 15 556 l0 542 85
3 85 3 -3 124 -3 125 -295 0 -294 0 0 -125 0 -125 44 0 44 0 7 -412 c4 -227 6
-455 4 -506 l-4 -94 -45 -38 -45 -38 -175 -4 c-96 -2 -186 0 -200 5 -36 12
-100 77 -100 103 0 19 6 22 59 26 l59 4 134 120 133 120 2 535 3 534 -136 123
-136 122 -312 0 -312 0 -140 -123z m695 -129 l61 -51 0 -466 c0 -256 -4 -471
-8 -477 -4 -5 -28 -29 -54 -53 l-48 -44 0 367 0 366 35 0 35 0 0 125 0 125
-260 0 -261 0 3 -122 3 -123 68 -3 67 -3 0 -369 0 -370 -42 0 c-38 0 -48 6
-100 57 l-58 57 0 461 0 461 38 35 c87 82 75 79 277 79 l183 0 61 -52z"/>
</g>
</svg>
